# AST/ASF file generated using VICON BodyLanguage
# -----------------------------------------------
:version 1.10
:name VICON
:units
  mass 1.0
  length 0.1
  angle deg
:documentation
   .ast/.asf automatically generated from VICON data using
   VICON BodyBuilder and BodyLanguage model FULLBODY5.MOD
:root
   order TX TY TZ RZ RY RX
   axis XYZ
   position 0 0 0  
   orientation 0 -0 0 
:bonedata
  begin
     id 1 
     name lhipjoint
     direction 0.969109 -0.218487 0.11442 
     length 0.544217 
     axis 0 -0 0  XYZ
  end
  begin
     id 2 
     name lfemur
     direction 0.173648 -0.984808 0  
     length 1.81499  
     axis 0 -0 10  XYZ
    dof rx ry rz
    limits (-180.0 180.0)
           (-180.0 180.0)
           (-180.0 180.0)
  end
  begin
     id 3 
     name ltibia
     direction 0.173515 -0.984831 0   
     length 1.55296   
     axis 0 -0 10   XYZ
    dof rx ry rz
    limits (-180.0 180.0)
           (-180.0 180.0)
           (-180.0 180.0)
  end
  begin
     id 4 
     name lfoot
     direction 7.36097e-012 -0.333012 0.942922   
     length 0.509062   
     axis -90 -1.73656e-015 10   XYZ
    dof rx ry rz
    limits (-180.0 180.0)
           (-180.0 180.0)
           (-180.0 180.0)
  end
  begin
     id 5 
     name ltoes
     direction 7.7847e-012 -4.42403e-011 1   
     length 0.249732   
     axis -90 -1.73656e-015 10   XYZ
    dof rx ry rz
    limits (-180.0 180.0)
           (-180.0 180.0)
           (-180.0 180.0)
  end
  begin
     id 6 
     name rhipjoint
     direction -0.966745 -0.226554 0.118645   
     length 0.524838  
     axis 0 -0 0  XYZ 
  end
  begin
     id 7 
     name rfemur
     direction -0.173648 -0.984808 0   
     length 1.84625   
     axis 0 -0 -10   XYZ
    dof rx ry rz
    limits (-180.0 180.0)
           (-180.0 180.0)
           (-180.0 180.0)
  end
  begin
     id 8 
     name rtibia
     direction -0.173714 -0.984796 0   
     length 1.577   
     axis 0 -0 -10   XYZ
    dof rx ry rz
    limits (-180.0 180.0)
           (-180.0 180.0)
           (-180.0 180.0)
 end
 begin
     id 9 
     name rfoot
     direction -0.0183819 -0.0406144 0.999006   
     length 0.490111  
     axis -90 1.73656e-015 -10   XYZ
    dof rx ry rz
    limits (-180.0 180.0)
           (-180.0 180.0)
           (-180.0 180.0)
  end
  begin
     id 10 
     name rtoes
     direction -7.79087e-012 -4.42375e-011 1   
     length 0.245053   
     axis -90 1.73656e-015 -10   XYZ
    dof rx ry rz
    limits (-180.0 180.0)
           (-180.0 180.0)
           (-180.0 180.0)
  end
  begin
     id 11 
     name lowerback
     direction -0.0664844 0.980601 0.184393   
     length 0.458979   
     axis 0 -0 0   XYZ
    dof rx ry rz
    limits (-180.0 180.0)
           (-180.0 180.0)
           (-180.0 180.0)
  end
  begin
     id 12 
     name upperback
     direction 0.0135995 0.999573 0.02588   
     length 0.463983   
     axis 0 -0 0   XYZ
    dof rx ry rz
    limits (-180.0 180.0)
           (-180.0 180.0)
           (-180.0 180.0)
  end
  begin
     id 13 
     name thorax
     direction 0.0468402 0.997311 -0.0563691   
     length 0.482746   
     axis 0 -0 0   XYZ
    dof rx ry rz
    limits (-180.0 180.0)
           (-180.0 180.0)
           (-180.0 180.0)
  end
  begin
     id 14 
     name lowerneck
     direction -0.00174311 0.988586 -0.150647   
     length 0.364383   
     axis 0 -0 0   XYZ
    dof rx ry rz
    limits (-180.0 180.0)
           (-180.0 180.0)
           (-180.0 180.0)
  end
  begin
     id 15 
     name upperneck
     direction -0.02653 0.999379 -0.0231908   
     length 0.361006   
     axis 0 -0 0   XYZ
    dof rx ry rz
    limits (-180.0 180.0)
           (-180.0 180.0)
           (-180.0 180.0)
  end
  begin
     id 16
     name head
     direction -0.00819207 0.999941 0.00714285  
     length 0.378714  
     axis 0 -0 0   XYZ
    dof rx ry rz
    limits (-180.0 180.0)
           (-180.0 180.0)
           (-180.0 180.0)
  end
  begin
     id 17 
     name lshoulderjoint
     direction 0.981627 -0.190809 0  
     length 0.612969  
     axis 0 -0 -11   XYZ
    dof rx ry rz
    limits (-180.0 180.0)
           (-180.0 180.0)
           (-180.0 180.0)
  end
  begin
     id 18 
     name lhumerus
     direction 0.48481 -0.87462 -9.72962e-027   
     length 1.19637   
     axis -180 5.14477e-009 -151   XYZ
    dof rx ry rz
    limits (-180.0 180.0)
           (-180.0 180.0)
           (-180.0 180.0)
  end
  begin
     id 19
     name lradius
     direction 0.48481 -0.87462 -2.35761e-026   
     length 0.637735   
     axis -180 5.14477e-009 -151   XYZ
    dof rx ry rz
    limits (-180.0 180.0)
           (-180.0 180.0)
           (-180.0 180.0)
  end
  begin
     id 20
     name lwrist
     direction 0.48481 -0.87462 -5.51856e-026   
     length 0.318868   
     axis -180 5.14477e-009 -151   XYZ
    dof rx ry rz
    limits (-180.0 180.0)
           (-180.0 180.0)
           (-180.0 180.0)
  end
  begin
     id 21 
     name lhand
     direction 0.477747 -0.861928 -0.169816   
     length 0.29526   
     axis -180 5.14477e-009 -151   XYZ
    dof rx ry rz
    limits (-180.0 180.0)
           (-180.0 180.0)
           (-180.0 180.0)
  end
  begin
     id 22 
     name rshoulderjoint
     direction -0.981627 -0.190809 0   
     length 0.572347  
     axis 0 -0 11   XYZ 
    dof rx ry rz
    limits (-180.0 180.0)
           (-180.0 180.0)
           (-180.0 180.0)
  end
  begin
     id 23 
     name rhumerus
     direction -0.48481 -0.87462 1.64836e-026  
     length 1.28846   
     axis 180 5.14477e-009 151   XYZ
    dof rx ry rz
    limits (-180.0 180.0)
           (-180.0 180.0)
           (-180.0 180.0)
  end
  begin
     id 24 
     name rradius
     direction -0.48481 -0.87462 2.86827e-026   
     length 0.62107   
     axis 180 5.14477e-009 151   XYZ
    dof rx ry rz
    limits (-180.0 180.0)
           (-180.0 180.0)
           (-180.0 180.0)
  end
  begin
     id 25 
     name rwrist
     direction -0.48481 -0.87462 5.20942e-026   
     length 0.310535   
     axis 180 5.14477e-009 151   XYZ
    dof rx ry rz
    limits (-180.0 180.0)
           (-180.0 180.0)
           (-180.0 180.0)
  end
  begin
     id 26
     name rhand
     direction -0.477664 -0.861515 -0.172133   
     length 0.291321   
     axis 180 5.14477e-009 151   XYZ
    dof rx ry rz
    limits (-180.0 180.0)
           (-180.0 180.0)
           (-180.0 180.0)
  end
:hierarchy
  begin
    root lhipjoint rhipjoint lowerback 
    lhipjoint lfemur
    lfemur ltibia
    ltibia lfoot
    lfoot ltoes
    rhipjoint rfemur
    rfemur rtibia
    rtibia rfoot
    rfoot rtoes
    lowerback upperback
    upperback thorax
    thorax lowerneck lshoulderjoint rshoulderjoint
    lowerneck upperneck
    upperneck head
    lshoulderjoint lhumerus
    lhumerus lradius
    lradius lwrist
    lwrist lhand
    rshoulderjoint rhumerus
    rhumerus rradius
    rradius rwrist
    rwrist rhand
  end

:FULLY-SPECIFIED
:DEGREES
292
root 5.80401 3.62771 -0.306047 126.113 -70.8174 122.282
lowerback -16.9287 2.06873 -7.61244
upperback -5.06955 3.71611 -0.937282
thorax 3.5872 1.7038 4.01188
lowerneck 14.95 -2.73603 1.44493
upperneck 6.5832 -3.75283 -3.47548
head -0.509613 -1.95169 -1.15276
rshoulderjoint -0.110073 0.210709 -38.5823
rhumerus 159.419 -53.114 -167.289
rradius 35.7372 2.63986e-013 1.46306e-013
rwrist -2.47796e-013 -5.87884 -9.35231e-014
rhand 9.67338 5.39014 -23.8627
lshoulderjoint -0.927579 -1.66213 40.17
lhumerus 170.221 73.172 189.031
lradius 34.3109 -2.38542e-013 -1.60618e-013
lwrist 4.14041e-013 -3.49036 2.62883e-014
lhand 30.7219 3.48178 -4.83045
rfemur -15.4722 23.7171 10.0757
rtibia 24.7482 4.92986e-014 1.27222e-014
rfoot -163.028 -44.2482 153.879
rtoes -8.90555e-014 -3.79679e-014 -6.38099e-014
lfemur -32.519 -2.6316 -7.82754
ltibia -5.40694e-014 -1.59028e-015 9.44227e-015
lfoot -12.0683 13.118 10.3207
ltoes 2.54444e-013 -4.77083e-014 2.84262e-014
293
root 5.83365 3.62873 -0.312324 125.258 -71.1223 121.415
lowerback -16.7691 1.93792 -7.75777
upperback -4.98801 3.5661 -0.92568
thorax 3.59681 1.63104 4.07321
lowerneck 14.8385 -2.73715 1.39637
upperneck 6.60499 -3.75985 -3.41242
head -0.481534 -1.95714 -1.12537
rshoulderjoint -0.115377 0.220865 -38.5821
rhumerus 159.564 -53.1232 -167.304
rradius 35.7061 -3.62583e-013 -2.3059e-013
rwrist 2.63777e-013 -5.86556 7.35378e-014
rhand 9.72354 5.37975 -23.7561
lshoulderjoint -0.894308 -1.6028 40.1652
lhumerus 169.447 73.1467 188.142
lradius 34.3381 2.48083e-013 1.83677e-013
lwrist -4.28606e-013 -3.547 4.77999e-015
lhand 30.8101 3.53754 -4.81565
rfemur -15.6704 24.0348 10.1159
rtibia 24.4967 -1.59028e-015 0
rfoot -162.792 -44.3983 153.025
rtoes 9.22361e-014 2.70944e-013 5.05907e-014
lfemur -32.4696 -2.99818 -7.67752
ltibia 1.59028e-014 -3.65764e-014 -1.48095e-014
lfoot -11.2403 13.259 11.8935
ltoes -1.55847e-013 1.65786e-013 4.34841e-015
294
root 5.86279 3.62951 -0.318267 124.286 -71.4444 120.442
lowerback -16.6314 1.80618 -7.9029
upperback -5.00406 3.40316 -0.892832
thorax 3.51406 1.5558 4.15298
lowerneck 15.1778 -2.76237 1.33766
upperneck 6.47483 -3.80589 -3.37483
head -0.578209 -1.97925 -1.09645
rshoulderjoint -0.302134 0.573513 -38.7815
rhumerus 160.504 -53.2793 -168.111
rradius 35.6624 -6.04305e-013 -3.33163e-013
rwrist 1.27896e-013 -5.88443 1.64666e-013
rhand 9.77004 5.3943 -23.6585
lshoulderjoint -1.05191 -1.87802 40.2612
lhumerus 170.131 73.1384 188.772
lradius 34.3642 3.62583e-013 2.17868e-013
lwrist -4.77961e-013 -3.47276 -7.56771e-014
lhand 30.951 3.46661 -4.74478
rfemur -15.8613 24.3529 10.1637
rtibia 24.2489 3.18055e-015 1.59028e-015
rfoot -162.587 -44.5485 152.16
rtoes 5.725e-014 1.88647e-013 -6.90777e-015
lfemur -32.3226 -3.41466 -7.52847
ltibia 5.725e-014 -3.65764e-014 1.49089e-015
lfoot -10.529 12.9065 13.2918
ltoes -1.49486e-013 1.05356e-013 -3.1408e-014
295
root 5.89125 3.62997 -0.324175 123.179 -71.7709 119.333
lowerback -16.4849 1.65784 -8.05821
upperback -4.93716 3.22882 -0.850366
thorax 3.51679 1.47146 4.24952
lowerneck 15.0559 -2.77917 1.29602
upperneck 6.50017 -3.83209 -3.38393
head -0.549766 -1.99308 -1.09239
rshoulderjoint -0.297671 0.563845 -38.8316
rhumerus 160.666 -53.3273 -168.095
rradius 35.6374 2.95792e-013 2.14687e-013
rwrist -2.82159e-013 -5.86207 -3.03741e-014
rhand 9.84006 5.37722 -23.5201
lshoulderjoint -1.00429 -1.79582 40.222
lhumerus 169.257 73.1736 187.765
lradius 34.4024 -1.11319e-013 -2.77503e-013
lwrist 3.43513e-013 -3.41318 -3.11452e-013
lhand 31.0864 3.408 -4.63373
rfemur -16.0741 24.7873 10.1686
rtibia 24.0229 -3.97569e-014 -2.06736e-014
rfoot -162.474 -44.6612 151.255
rtoes 8.74653e-014 -3.31772e-013 7.86193e-014
lfemur -32.0934 -3.87549 -7.38167
ltibia -5.08889e-014 0 -1.10325e-014
lfoot -9.88927 12.6055 14.5757
ltoes 1.04958e-013 -5.30755e-014 -1.15295e-013
296
root 5.91929 3.63047 -0.329745 122.001 -72.0767 118.12
lowerback -16.4621 1.51441 -8.20551
upperback -4.81198 3.07748 -0.842423
thorax 3.64873 1.39119 4.3167
lowerneck 14.9899 -2.80228 1.29187
upperneck 6.38091 -3.85818 -3.38329
head -0.578318 -2.00226 -1.09007
rshoulderjoint -0.31615 0.597956 -38.8669
rhumerus 160.951 -53.2771 -168.174
rradius 35.599 1.87653e-013 3.97569e-014
rwrist 1.37483e-013 -5.86142 -1.35085e-013
rhand 9.93225 5.38021 -23.373
lshoulderjoint -0.976396 -1.74691 40.2082
lhumerus 168.232 73.1302 186.589
lradius 34.4524 -1.43125e-013 -8.98507e-014
lwrist -1.45353e-014 -3.29225 8.76098e-015
lhand 31.2251 3.28686 -4.49243
rfemur -16.3383 25.2289 10.1111
rtibia 23.8132 2.06736e-014 -1.59028e-015
rfoot -162.431 -44.7758 150.335
rtoes 4.92986e-014 -5.62561e-014 1.35671e-014
lfemur -31.8142 -4.36182 -7.28468
ltibia -2.8625e-014 -3.65764e-014 -1.47598e-014
lfoot -9.12296 12.0548 15.7658
ltoes 2.38542e-013 6.38099e-014 -1.55052e-014
297
root 5.94692 3.6311 -0.33511 120.785 -72.3898 116.954
lowerback -16.3196 1.39849 -8.28986
upperback -4.76552 2.93117 -0.783081
thorax 3.63321 1.32155 4.39643
lowerneck 14.972 -2.82663 1.21481
upperneck 6.33271 -3.90014 -3.39091
head -0.590378 -2.02289 -1.07704
rshoulderjoint -0.294535 0.554454 -38.9786
rhumerus 161.158 -53.3688 -168.208
rradius 35.5592 1.65389e-013 1.82882e-014
rwrist 2.72578e-013 -5.8826 -1.39087e-013
rhand 10.0605 5.40832 -23.2087
lshoulderjoint -0.968428 -1.7344 40.1835
lhumerus 167.442 73.195 185.662
lradius 34.5073 -1.36764e-013 -1.22451e-013
lwrist -8.06331e-014 -3.19476 -4.8579e-014
lhand 31.3585 3.18821 -4.32924
rfemur -16.5774 25.7186 10.1208
rtibia 23.6117 6.36111e-015 -7.95139e-015
rfoot -162.549 -44.9038 149.556
rtoes 2.38542e-014 -2.63986e-013 4.2043e-014
lfemur -34.1277 -4.62407 -7.24025
ltibia 5.85614 -2.22639e-014 -6.26172e-015
lfoot -11.3633 12.4172 15.9708
ltoes 2.70347e-013 -1.02076e-013 -8.46823e-014
298
root 5.97419 3.63186 -0.34025 119.666 -72.6942 115.858
lowerback -16.1207 1.28181 -8.4164
upperback -4.75158 2.78054 -0.701037
thorax 3.55004 1.25338 4.52042
lowerneck 14.9785 -2.82817 1.066
upperneck 6.33041 -3.92512 -3.39063
head -0.589122 -2.03811 -1.0502
rshoulderjoint -0.299617 0.561326 -39.0924
rhumerus 161.429 -53.5138 -168.253
rradius 35.534 -3.97569e-013 -2.0276e-013
rwrist 1.39893e-013 -5.9102 1.44689e-013
rhand 10.2234 5.4338 -23.0409
lshoulderjoint -0.922168 -1.65906 40.0725
lhumerus 166.531 73.3267 184.611
lradius 34.5656 1.7175e-013 2.47288e-013
lwrist -3.01207e-013 -3.11649 1.95894e-013
lhand 31.5224 3.10973 -4.15449
rfemur -16.8114 26.0482 10.1036
rtibia 23.425 1.27222e-014 7.95139e-015
rfoot -162.74 -45.0746 149.03
rtoes -6.44062e-014 1.90038e-013 -1.15792e-014
lfemur -35.4248 -4.95054 -7.20939
ltibia 9.69635 -1.74931e-014 -3.97569e-016
lfoot -12.4596 12.3663 16.3967
ltoes -1.01778e-013 1.48132e-013 1.13705e-013
299
root 6.00096 3.63313 -0.345096 118.576 -72.9753 114.892
lowerback -16.0524 1.21637 -8.38569
upperback -4.64271 2.69558 -0.632367
thorax 3.64026 1.20875 4.56171
lowerneck 14.9087 -2.85882 1.00755
upperneck 6.26738 -3.97067 -3.42124
head -0.598606 -2.05906 -1.04799
rshoulderjoint -0.243607 0.45448 -39.1923
rhumerus 161.513 -53.533 -168.171
rradius 35.5014 6.04305e-014 1.18476e-013
rwrist 5.36457e-013 -5.97973 1.81484e-013
rhand 10.4191 5.50725 -22.8604
lshoulderjoint -0.908743 -1.63784 40.0288
lhumerus 165.408 73.3291 183.4
lradius 34.6344 -2.38542e-013 2.05146e-013
lwrist -4.40682e-013 -2.92042 5.84391e-013
lhand 31.6973 2.91586 -3.94892
rfemur -17.0227 26.1836 10.1896
rtibia 23.2117 5.08889e-014 4.77083e-015
rfoot -163.058 -45.3113 148.837
rtoes 1.43125e-014 1.84373e-013 -1.31453e-013
lfemur -36.2571 -5.26987 -7.08122
ltibia 12.6719 -1.27222e-014 2.78299e-015
lfoot -13.0847 12.4357 16.8653
ltoes -4.13472e-014 6.54002e-014 2.06736e-013
300
root 6.02723 3.63475 -0.34955 117.598 -73.2734 113.999
lowerback -15.8352 1.15995 -8.4016
upperback -4.63981 2.60421 -0.557441
thorax 3.53493 1.17103 4.62598
lowerneck 14.9543 -2.88103 0.903446
upperneck 6.31335 -4.01762 -3.44345
head -0.59014 -2.08536 -1.03469
rshoulderjoint -0.240786 0.447795 -39.2679
rhumerus 161.84 -53.7183 -168.258
rradius 35.4691 3.91208e-013 2.28205e-013
rwrist -1.82317e-013 -6.08096 -9.83555e-014
rhand 10.6252 5.59895 -22.7276
lshoulderjoint -0.900855 -1.62959 39.9395
lhumerus 164.565 73.4862 182.434
lradius 34.6925 -2.16278e-013 -2.06736e-013
lwrist 3.16857e-013 -2.85036 -8.04085e-014
lhand 31.8429 2.84302 -3.71663
rfemur -17.1494 25.8118 10.3021
rtibia 22.9509 -3.49861e-014 -1.43125e-014
rfoot -163.458 -45.6706 149.199
rtoes 1.04958e-013 -1.91827e-014 3.23025e-015
lfemur -36.8153 -5.68333 -6.94936
ltibia 15.2716 1.27222e-014 4.77083e-015
lfoot -13.5413 12.6011 17.3137
ltoes -1.43125e-013 2.18663e-015 -4.29375e-014
